<?xml version="1.0" standalone="no"?>
<!DOCTYPE svg PUBLIC "-//W3C//DTD SVG 20010904//EN"
 "http://www.w3.org/TR/2001/REC-SVG-20010904/DTD/svg10.dtd">
<svg version="1.0" xmlns="http://www.w3.org/2000/svg"
 width="511.000000pt" height="511.000000pt" viewBox="0 0 511.000000 511.000000"
 preserveAspectRatio="xMidYMid meet">

<g transform="translate(0.000000,511.000000) scale(0.100000,-0.100000)"
fill="#000000" stroke="none">
<path d="M257 5086 c-110 -46 -175 -106 -217 -201 -39 -89 -40 -170 -38 -2062
1 -1005 5 -1774 8 -1708 3 66 7 95 8 65 2 -36 5 -50 11 -41 5 7 13 11 19 7 6
-3 14 -1 17 5 4 5 13 8 20 5 7 -2 24 2 39 9 14 8 26 11 26 7 0 -4 30 -5 66 -4
61 4 69 2 91 -23 16 -17 31 -24 43 -20 10 3 27 2 37 -3 40 -21 79 -35 90 -33
7 1 34 -5 60 -14 27 -9 72 -17 101 -16 34 0 52 -4 52 -12 0 -7 9 -18 20 -25
15 -9 20 -9 20 0 0 6 11 1 25 -12 19 -18 22 -26 13 -32 -10 -6 -9 -8 2 -9 30
-3 35 -4 60 -18 14 -8 27 -14 30 -13 17 6 111 -32 120 -47 11 -21 117 -77 137
-73 7 2 18 -6 25 -18 7 -11 21 -20 30 -20 10 0 18 -4 18 -9 0 -19 48 -61 69
-61 11 0 21 -5 21 -11 0 -6 6 -9 14 -6 15 6 39 -16 49 -46 4 -10 12 -15 18
-12 11 8 49 -22 50 -39 0 -15 59 -60 59 -46 0 6 4 9 10 5 5 -3 7 -12 3 -20 -3
-9 1 -15 10 -15 8 0 17 6 20 13 3 9 9 9 26 -1 11 -6 27 -12 34 -12 7 0 34 -21
60 -46 26 -25 52 -42 57 -39 6 4 17 1 25 -5 8 -6 19 -9 25 -5 5 3 10 1 10 -6
0 -17 40 -49 62 -49 10 0 18 -4 18 -10 0 -5 7 -6 17 -3 10 4 14 2 9 -5 -4 -6
3 -16 16 -23 27 -15 53 -39 41 -39 -4 -1 7 -7 25 -15 17 -8 32 -19 32 -24 0
-18 58 -42 85 -35 16 4 25 2 25 -6 0 -7 7 -10 15 -6 10 4 20 -3 27 -19 6 -14
14 -25 17 -26 3 0 17 -2 30 -3 14 -2 27 -8 29 -15 10 -31 50 -63 79 -65 17 -1
41 -10 52 -20 12 -11 21 -16 21 -11 0 4 7 2 15 -5 9 -7 14 -19 11 -27 -5 -11
180 -13 1177 -11 1112 3 1186 5 1247 22 86 24 148 65 204 132 58 71 84 143 96
263 13 133 13 4132 0 4278 -15 172 -59 265 -157 338 -27 19 -77 44 -112 55
-62 20 -89 20 -2290 20 l-2226 0 -58 -24z m2452 -812 c2 -2 -63 -4 -145 -4
-82 0 -180 -2 -219 -5 -38 -2 -63 -2 -54 1 51 16 400 23 418 8z m69 -11 c-10
-2 -28 -2 -40 0 -13 2 -5 4 17 4 22 1 32 -1 23 -4z m-525 -10 c-7 -2 -19 -2
-25 0 -7 3 -2 5 12 5 14 0 19 -2 13 -5z m590 0 c-7 -2 -21 -2 -30 0 -10 3 -4
5 12 5 17 0 24 -2 18 -5z m50 -10 c-7 -2 -19 -2 -25 0 -7 3 -2 5 12 5 14 0 19
-2 13 -5z m-943 -78 c-14 -8 -29 -14 -35 -14 -5 0 1 6 15 14 14 8 30 14 35 14
6 0 -1 -6 -15 -14z m-70 -29 c0 -2 -7 -7 -16 -10 -8 -3 -12 -2 -9 4 6 10 25
14 25 6z m604 -22 c6 -10 16 -22 23 -27 18 -11 4 -37 -18 -34 -26 4 -30 10
-33 51 -3 39 10 44 28 10z m150 -10 c12 -5 13 -10 3 -27 -7 -12 -12 -23 -13
-25 -1 -1 -9 0 -18 4 -19 7 -22 40 -3 47 6 3 13 6 14 6 1 1 8 -2 17 -5z m-54
-14 c0 -5 -4 -10 -10 -10 -5 0 -10 5 -10 10 0 6 5 10 10 10 6 0 10 -4 10 -10z
m207 -34 c-4 -9 -11 -16 -17 -16 -17 0 -24 31 -9 41 18 11 34 -5 26 -25z
m-403 16 c-6 -4 -13 -15 -17 -24 -8 -22 -30 -23 -48 -2 -10 13 -10 17 2 25 17
10 79 12 63 1z m-94 -43 c0 -13 -7 -19 -24 -19 -20 0 -23 4 -20 23 3 13 0 10
-7 -8 -13 -32 -28 -47 -41 -39 -13 8 -9 34 5 34 7 0 17 8 24 19 15 25 63 17
63 -10z m600 24 c0 -5 -5 -15 -10 -23 -8 -12 -12 -12 -18 -2 -5 7 -15 12 -22
10 -7 -2 -15 3 -17 10 -3 8 7 12 31 12 20 0 36 -3 36 -7z m112 -5 c-9 -9 -9
-15 0 -25 16 -20 -6 -41 -29 -27 -26 16 -27 35 -4 41 12 3 21 9 21 14 0 5 5 9
12 9 9 0 9 -3 0 -12z m-856 -25 c-3 -8 -6 -21 -6 -28 0 -23 -30 -25 -51 -4
l-21 21 27 18 c31 20 59 16 51 -7z m322 -32 c5 -32 -11 -46 -37 -32 -26 14
-27 36 -3 50 24 14 36 8 40 -18z m102 5 c0 -21 -17 -38 -35 -34 -27 5 -31 28
-6 35 11 3 18 9 15 14 -3 5 2 6 10 3 9 -3 16 -11 16 -18z m-511 0 c18 -12 -70
-69 -93 -60 -19 7 -21 27 -5 52 11 18 73 23 98 8z m611 5 c0 -9 -24 -21 -41
-21 -5 0 -9 7 -9 15 0 9 9 15 25 15 14 0 25 -4 25 -9z m140 -9 c0 -12 -23 -32
-37 -32 -7 0 -13 9 -13 20 0 15 7 20 25 20 14 0 25 -4 25 -8z m-447 -8 c11
-11 -5 -34 -24 -34 -18 0 -26 20 -12 33 8 9 28 9 36 1z m-76 -21 c3 -7 -7 -15
-22 -19 -31 -8 -38 -3 -29 20 7 19 45 18 51 -1z m843 2 c0 -8 -4 -15 -9 -15
-13 0 -22 16 -14 24 11 11 23 6 23 -9z m-220 -10 c0 -15 -43 -12 -48 3 -3 10
4 13 22 10 15 -2 26 -7 26 -13z m-730 -20 c0 -31 -35 -35 -43 -6 -6 24 0 31
25 31 13 0 18 -7 18 -25z m868 2 c4 -20 -25 -34 -40 -19 -15 15 -1 44 19 40
10 -2 19 -11 21 -21z m-295 -12 c-1 -5 -8 -14 -17 -20 -18 -11 -42 7 -31 25 8
13 51 9 48 -5z m510 -7 c3 -10 1 -20 -4 -23 -12 -8 -48 17 -43 30 7 17 42 12
47 -7z m-1343 -8 c0 -15 -7 -20 -25 -20 -18 0 -25 5 -25 20 0 15 7 20 25 20
18 0 25 -5 25 -20z m495 -5 c0 -15 -7 -20 -25 -20 -14 0 -31 -4 -39 -9 -8 -5
-16 -4 -21 5 -11 17 -3 29 20 29 10 0 22 5 25 11 11 17 40 5 40 -16z m161 -4
c-10 -16 -36 -13 -36 3 0 17 21 27 34 16 4 -5 5 -13 2 -19z m-530 4 c8 -21 -3
-34 -26 -28 -32 8 -23 39 13 42 4 1 10 -6 13 -14z m224 -21 c0 -17 -15 -25
-34 -18 -19 7 -21 25 -4 42 13 13 38 -2 38 -24z m400 21 c0 -8 -9 -15 -19 -15
-24 0 -36 16 -19 23 24 10 38 7 38 -8z m195 -10 c0 -28 -29 -25 -33 3 -3 19 0
23 15 20 10 -2 18 -12 18 -23z m-1025 -1 c0 -18 -24 -44 -40 -44 -20 0 -28 29
-13 43 8 8 53 9 53 1z m1338 -17 c2 -10 -3 -17 -12 -17 -10 0 -16 9 -16 21 0
24 23 21 28 -4z m-1218 -8 c0 -11 -3 -18 -7 -16 -5 2 -16 7 -26 10 -22 8 -13
27 14 27 13 0 19 -7 19 -21z m558 4 c2 -8 -6 -13 -22 -13 -17 0 -26 5 -26 16
0 19 41 16 48 -3z m452 2 c0 -8 -9 -15 -20 -15 -11 0 -20 7 -20 15 0 8 9 15
20 15 11 0 20 -7 20 -15z m128 -2 c-4 -22 -22 -20 -26 1 -2 10 3 16 13 16 10
0 15 -7 13 -17z m256 -24 c-3 -5 -14 -9 -25 -9 -21 0 -27 35 -6 43 14 5 39
-22 31 -34z m-564 18 c0 -19 -10 -27 -26 -20 -21 8 -17 33 6 33 11 0 20 -6 20
-13z m-632 -25 c3 -17 -2 -22 -17 -22 -14 0 -21 6 -21 18 0 38 33 41 38 4z
m-88 -8 c0 -8 -9 -14 -20 -14 -19 0 -27 19 -14 33 10 9 34 -4 34 -19z m625 16
c-3 -5 -13 -10 -21 -10 -8 0 -14 5 -14 10 0 6 9 10 21 10 11 0 17 -4 14 -10z
m329 -5 c3 -8 1 -15 -3 -15 -5 0 -11 7 -15 15 -3 8 -1 15 3 15 5 0 11 -7 15
-15z m-569 -4 c7 -12 -12 -24 -25 -16 -11 7 -4 25 10 25 5 0 11 -4 15 -9z
m125 -6 c0 -8 -9 -15 -20 -15 -20 0 -26 11 -13 23 12 13 33 7 33 -8z m668 -2
c6 -19 -28 -29 -39 -12 -5 8 -9 18 -9 22 0 13 43 3 48 -10z m-1500 -15 c-4
-28 -42 -37 -52 -13 -9 24 1 35 30 35 21 0 25 -4 22 -22z m1152 7 c0 -8 -9
-15 -20 -15 -11 0 -20 7 -20 15 0 8 9 15 20 15 11 0 20 -7 20 -15z m528 -13
c2 -14 -2 -22 -12 -22 -19 0 -29 17 -22 36 8 22 30 12 34 -14z m-1560 6 c8 -8
9 -15 1 -25 -15 -17 -51 1 -43 22 7 18 26 19 42 3z m450 -5 c-2 -10 -10 -18
-18 -18 -8 0 -16 8 -18 18 -2 12 3 17 18 17 15 0 20 -5 18 -17z m-320 -10 c-5
-26 -38 -29 -38 -4 0 15 6 21 21 21 14 0 19 -5 17 -17z m407 8 c7 -12 -12 -24
-25 -16 -11 7 -4 25 10 25 5 0 11 -4 15 -9z m335 -25 c-13 -13 -35 7 -25 24 5
8 11 8 21 -1 10 -8 12 -15 4 -23z m228 16 c2 -7 -3 -12 -12 -12 -9 0 -16 7
-16 16 0 17 22 14 28 -4z m140 6 c-6 -18 -25 -20 -31 -3 -5 10 0 15 14 15 12
0 19 -5 17 -12z m-880 -10 c-7 -19 -38 -22 -38 -4 0 10 9 16 21 16 12 0 19 -5
17 -12z m277 2 c3 -5 -1 -10 -9 -10 -9 0 -16 5 -16 10 0 6 4 10 9 10 6 0 13
-4 16 -10z m285 -10 c0 -13 -5 -18 -15 -14 -8 4 -15 12 -15 20 0 8 7 14 15 14
8 0 15 -9 15 -20z m-130 0 c0 -5 -9 -10 -20 -10 -11 0 -20 5 -20 10 0 6 9 10
20 10 11 0 20 -4 20 -10z m685 0 c-3 -5 -13 -10 -21 -10 -8 0 -14 5 -14 10 0
6 9 10 21 10 11 0 17 -4 14 -10z m173 -7 c5 -17 -26 -29 -40 -15 -6 6 -7 15
-3 22 9 14 37 9 43 -7z m-1868 -2 c0 -36 -21 -49 -49 -32 -12 8 -12 12 -2 25
14 17 51 22 51 7z m484 3 c9 -3 14 -10 11 -15 -7 -10 -35 0 -35 12 0 11 3 11
24 3z m738 -9 c0 -5 -5 -11 -11 -13 -6 -2 -11 4 -11 13 0 9 5 15 11 13 6 -2
11 -8 11 -13z m318 -5 c0 -11 -7 -20 -15 -20 -15 0 -21 21 -8 33 12 13 23 7
23 -13z m-1400 -15 c0 -18 -5 -25 -19 -25 -23 0 -34 23 -18 39 19 19 37 12 37
-14z m148 13 c-3 -7 -13 -13 -23 -13 -10 0 -20 6 -22 13 -3 7 5 12 22 12 17 0
25 -5 23 -12z m527 1 c10 -15 -1 -23 -20 -15 -9 3 -13 10 -10 16 8 13 22 13
30 -1z m125 1 c0 -5 -7 -10 -16 -10 -8 0 -12 5 -9 10 3 6 10 10 16 10 5 0 9
-4 9 -10z m440 0 c0 -5 -7 -10 -16 -10 -8 0 -12 5 -9 10 3 6 10 10 16 10 5 0
9 -4 9 -10z m-970 -14 c0 -8 -4 -17 -8 -20 -13 -8 -35 11 -28 23 10 16 36 14
36 -3z m290 -1 c0 -8 -9 -15 -20 -15 -20 0 -26 11 -13 23 12 13 33 7 33 -8z
m907 -7 c-3 -8 -6 -5 -6 6 -1 11 2 17 5 13 3 -3 4 -12 1 -19z m-1257 -34 c0
-16 -26 -19 -35 -4 -4 6 -4 18 -1 27 5 12 9 13 21 3 8 -7 15 -19 15 -26z
m1406 8 c-9 -9 -37 8 -31 18 5 8 11 7 21 -1 8 -6 12 -14 10 -17z m-886 -2 c0
-13 -5 -18 -14 -14 -8 3 -12 12 -9 20 8 21 23 17 23 -6z m100 4 c0 -8 -5 -12
-10 -9 -6 4 -8 11 -5 16 9 14 15 11 15 -7z m959 3 c12 -15 -3 -37 -25 -37 -18
0 -27 32 -12 42 18 11 24 10 37 -5z m-769 -22 c0 -8 -4 -17 -10 -20 -6 -4 -10
5 -10 20 0 15 4 24 10 20 6 -3 10 -12 10 -20z m-1262 6 c19 -11 11 -45 -11
-49 -19 -4 -32 20 -23 43 6 17 15 19 34 6z m145 -5 c9 -22 -18 -40 -33 -22 -6
9 -9 20 -5 26 9 15 32 12 38 -4z m215 -22 c2 -32 0 -35 -20 -32 -17 2 -23 10
-23 28 0 14 -4 28 -10 32 -5 4 4 8 20 8 28 0 31 -3 33 -36z m232 27 c0 -5 -9
-7 -20 -4 -11 3 -20 7 -20 9 0 2 9 4 20 4 11 0 20 -4 20 -9z m1040 -11 c0 -5
-4 -10 -10 -10 -5 0 -10 5 -10 10 0 6 5 10 10 10 6 0 10 -4 10 -10z m-1375
-19 c7 -12 -29 -33 -39 -24 -3 3 -6 12 -6 20 0 15 36 18 45 4z m885 -5 c0 -3
-4 -8 -10 -11 -5 -3 -10 -1 -10 4 0 6 5 11 10 11 6 0 10 -2 10 -4z m758 -13
c-2 -10 -10 -18 -18 -18 -8 0 -16 8 -18 18 -2 12 3 17 18 17 15 0 20 -5 18
-17z m-1962 -39 c-6 -13 -19 -24 -29 -24 -10 0 -16 4 -12 9 3 5 1 12 -5 16
-32 20 9 51 41 32 13 -8 14 -14 5 -33z m2162 23 c4 -20 -25 -34 -40 -19 -15
15 -1 44 19 40 10 -2 19 -11 21 -21z m-2000 1 c-7 -20 -48 -23 -48 -4 0 11 9
16 26 16 16 0 24 -5 22 -12z m350 -5 c2 -8 -5 -13 -17 -13 -12 0 -21 6 -21 16
0 18 31 15 38 -3z m149 11 c-3 -3 -12 -4 -19 -1 -8 3 -5 6 6 6 11 1 17 -2 13
-5z m63 -2 c0 -5 -7 -9 -15 -9 -8 0 -15 4 -15 9 0 4 7 8 15 8 8 0 15 -4 15 -8z
m-480 -27 c0 -15 -26 -32 -36 -23 -2 3 -2 13 2 22 8 20 34 21 34 1z m1300 -3
c0 -5 -7 -9 -15 -9 -8 0 -12 4 -9 9 3 4 9 8 15 8 5 0 9 -4 9 -8z m-1210 -17
c0 -17 -2 -18 -24 -9 -23 9 -20 24 4 24 11 0 20 -7 20 -15z m570 -6 c0 -5 -4
-9 -10 -9 -5 0 -10 7 -10 16 0 8 5 12 10 9 6 -3 10 -10 10 -16z m1152 -11
c-10 -10 -15 -10 -22 2 -6 9 -5 17 3 22 18 11 33 -10 19 -24z m-72 3 c0 -12
-28 -22 -34 -12 -3 5 -3 11 1 15 9 9 33 7 33 -3z m-2056 -17 c10 -27 7 -42
-13 -47 -37 -9 -51 18 -26 50 14 17 32 16 39 -3z m136 -15 c0 -12 -7 -19 -19
-19 -22 0 -37 30 -20 41 18 11 39 -1 39 -22z m110 6 c0 -8 -9 -15 -20 -15 -11
0 -20 7 -20 15 0 8 9 15 20 15 11 0 20 -7 20 -15z m100 5 c0 -5 -6 -10 -14
-10 -8 0 -18 5 -21 10 -3 6 3 10 14 10 12 0 21 -4 21 -10z m173 -12 c-4 -7 -8
-19 -8 -27 0 -8 -6 -16 -14 -19 -10 -3 -12 0 -8 12 4 10 7 24 7 32 0 8 7 14
16 14 10 0 12 -4 7 -12z m1795 -16 c3 -16 -2 -22 -17 -22 -24 0 -35 15 -27 36
9 23 40 13 44 -14z m-1878 14 c0 -9 -30 -14 -35 -6 -4 6 3 10 14 10 12 0 21
-2 21 -4z m1747 -12 c-3 -3 -12 -4 -19 -1 -8 3 -5 6 6 6 11 1 17 -2 13 -5z
m-1809 -26 c-6 -18 -28 -21 -28 -4 0 9 7 16 16 16 9 0 14 -5 12 -12z m1652 3
c0 -17 -18 -21 -24 -6 -3 9 0 15 9 15 8 0 15 -4 15 -9z m-1948 -13 c8 -21 -2
-38 -23 -38 -19 0 -27 29 -12 43 11 11 31 8 35 -5z m-124 -25 c2 -13 0 -23 -5
-24 -4 0 -18 -2 -31 -5 -14 -2 -21 0 -17 6 3 5 1 10 -5 10 -8 0 -8 6 0 21 15
27 54 22 58 -8z m236 -4 c-3 -5 -14 -9 -25 -9 -21 0 -26 26 -6 33 15 5 39 -12
31 -24z m79 14 c11 -10 -13 -32 -29 -26 -20 8 -17 33 4 33 10 0 22 -3 25 -7z
m1980 -18 c1 -5 -6 -11 -15 -13 -11 -2 -18 3 -18 13 0 17 30 18 33 0z m162
-26 c8 -13 6 -15 -22 -23 -19 -6 -23 -3 -23 13 0 23 33 30 45 10z m-2386 -18
c19 -12 6 -41 -17 -41 -25 0 -31 7 -25 31 6 20 20 24 42 10z m2281 -17 c0 -17
-26 -19 -36 -3 -7 12 15 31 28 23 4 -3 8 -12 8 -20z m-2422 -23 c-2 -18 -10
-27 -25 -29 -29 -4 -43 36 -18 54 25 19 47 6 43 -25z m453 -7 c23 -20 77 -124
139 -263 21 -47 95 -205 165 -351 196 -408 328 -700 231 -511 -24 46 -35 59
-39 47 -4 -9 -2 -16 4 -16 6 0 7 -5 4 -10 -4 -6 -10 -8 -14 -6 -4 3 -8 0 -8
-7 0 -7 -4 -21 -9 -31 -5 -13 -4 -17 3 -13 15 9 4 -34 -13 -50 -7 -7 -11 -26
-10 -42 1 -17 0 -28 -3 -26 -2 3 -10 0 -17 -6 -15 -13 -34 12 -109 151 -31 58
-53 96 -49 85 4 -11 8 -37 9 -57 2 -21 4 -41 5 -45 1 -5 2 -19 1 -33 -2 -20 0
-22 8 -10 6 8 11 10 11 5 0 -6 -5 -16 -11 -22 -8 -8 12 -56 76 -177 47 -91 84
-166 82 -166 -3 0 -47 80 -100 178 -139 258 -245 500 -337 767 -53 153 -153
389 -231 546 -21 42 -35 80 -31 84 4 4 56 5 115 2 87 -4 112 -8 128 -23z
m1833 14 c-14 -24 -116 -183 -135 -210 -11 -15 -19 -32 -19 -38 0 -6 -4 -8
-10 -5 -5 3 -50 -76 -99 -179 -80 -166 -111 -221 -95 -168 3 9 -2 5 -11 -11
-9 -15 -13 -32 -10 -37 3 -6 2 -10 -3 -10 -10 0 -44 -71 -192 -410 -120 -275
-164 -364 -155 -314 10 51 -48 279 -67 268 -7 -4 -8 -2 -4 4 9 15 -31 99 -47
99 -7 0 -13 -8 -13 -18 0 -13 4 -15 12 -8 10 8 12 3 12 -20 -1 -17 -5 -28 -9
-25 -5 3 -6 -2 -3 -10 3 -9 1 -16 -5 -16 -7 0 -9 -11 -6 -27 3 -16 2 -22 -1
-15 -3 6 -10 12 -15 12 -9 0 5 -40 64 -177 53 -122 59 -148 37 -173 l-18 -20
-20 31 -20 32 -12 -24 c-7 -13 -16 -26 -20 -29 -13 -9 -22 -50 -11 -50 6 0 7
-7 4 -17 -5 -12 -3 -14 7 -8 9 5 11 4 6 -4 -4 -6 0 -24 10 -39 l17 -27 -21 19
c-12 11 -22 23 -22 28 0 12 -131 296 -243 528 -146 301 -205 445 -252 612 -25
89 -68 217 -95 286 -28 69 -50 133 -50 143 0 17 10 19 113 19 140 0 134 5 218
-185 225 -513 412 -917 424 -919 5 0 27 42 48 94 45 112 294 653 379 825 66
134 83 155 142 184 49 24 203 31 190 9z m-536 -20 c-3 -7 -9 -13 -15 -13 -6 0
-30 -25 -54 -55 -23 -30 -65 -80 -92 -110 -60 -66 -84 -102 -160 -245 -32 -60
-55 -99 -51 -85 6 21 5 23 -8 12 -12 -10 -22 -9 -52 3 -20 9 -41 13 -46 10
-14 -8 -6 9 99 240 61 134 101 209 121 228 29 26 34 27 146 27 88 0 115 -3
112 -12z m-1658 -27 c0 -28 -21 -37 -36 -16 -16 22 -10 35 17 35 12 0 19 -7
19 -19z m2380 5 c0 -16 -14 -36 -25 -36 -20 0 -30 21 -14 31 15 9 39 12 39 5z
m80 -37 c0 -25 -33 -22 -38 4 -2 12 3 17 17 17 15 0 21 -6 21 -21z m-2626 -5
c24 -9 21 -54 -3 -54 -21 0 -30 16 -23 43 5 19 5 19 26 11z m100 -20 c24 -9
21 -54 -3 -54 -25 0 -34 14 -26 40 7 22 7 22 29 14z m2209 -29 c-3 -9 -8 -14
-10 -11 -3 3 -2 9 2 15 9 16 15 13 8 -4z m267 -15 c0 -5 -4 -10 -9 -10 -6 0
-13 5 -16 10 -3 6 1 10 9 10 9 0 16 -4 16 -10z m-2396 -26 c4 -9 4 -19 2 -21
-8 -8 -26 8 -26 23 0 19 16 18 24 -2z m-196 -18 c5 -26 -11 -38 -32 -23 -11 8
-15 19 -10 30 8 23 38 18 42 -7z m110 -14 c3 -17 -2 -22 -17 -22 -14 0 -21 6
-21 18 0 38 33 41 38 4z m2178 -19 c-8 -15 -15 -25 -16 -21 0 12 23 58 27 54
3 -2 -2 -17 -11 -33z m252 14 c2 -12 -3 -17 -17 -17 -15 0 -21 6 -21 21 0 25
33 22 38 -4z m172 -29 c0 -27 -34 -19 -38 9 -3 17 1 20 17 16 12 -3 21 -14 21
-25z m-80 7 c0 -8 -7 -15 -15 -15 -8 0 -15 7 -15 15 0 8 7 15 15 15 8 0 15 -7
15 -15z m-2412 -12 c-2 -10 -10 -18 -18 -18 -8 0 -16 8 -18 18 -2 12 3 17 18
17 15 0 20 -5 18 -17z m-134 -29 c10 -27 7 -34 -18 -34 -24 0 -41 23 -30 41 9
15 41 10 48 -7z m2145 -83 c-23 -50 -44 -89 -47 -86 -3 3 14 46 38 95 24 49
46 88 48 86 2 -2 -15 -45 -39 -95z m-2249 50 c0 -39 -37 -50 -62 -18 -16 20
-16 23 -1 35 9 6 27 12 40 12 19 0 23 -5 23 -29z m200 -1 c0 -22 -7 -25 -29
-11 -16 10 -6 31 15 31 8 0 14 -9 14 -20z m2430 10 c0 -5 -7 -10 -15 -10 -8 0
-15 5 -15 10 0 6 7 10 15 10 8 0 15 -4 15 -10z m110 -15 c7 -8 19 -15 26 -15
8 0 14 -4 14 -10 0 -13 -17 -13 -25 1 -5 6 -11 4 -19 -6 -11 -15 -13 -15 -25
-1 -14 16 -9 46 7 46 5 0 15 -7 22 -15z m-2415 -24 c3 -5 1 -12 -5 -16 -5 -3
-10 1 -10 9 0 18 6 21 15 7z m-255 -21 c0 -21 -24 -28 -35 -10 -8 14 3 30 21
30 8 0 14 -9 14 -20z m1631 -27 c-11 -21 -20 -35 -21 -31 0 12 33 78 38 74 2
-2 -6 -21 -17 -43z m-1543 9 c2 -7 -3 -12 -12 -12 -9 0 -16 7 -16 16 0 17 22
14 28 -4z m2542 -13 c0 -5 -7 -9 -15 -9 -15 0 -20 12 -9 23 8 8 24 -1 24 -14z
m-2750 -25 c0 -21 -4 -25 -22 -22 -29 4 -38 44 -11 50 26 6 33 0 33 -28z m290
5 c0 -5 -7 -9 -15 -9 -8 0 -15 7 -15 15 0 9 6 12 15 9 8 -4 15 -10 15 -15z
m90 17 c0 -11 -19 -15 -25 -6 -3 5 1 10 9 10 9 0 16 -2 16 -4z m2300 -4 c0 -5
-7 -9 -15 -9 -8 0 -15 4 -15 9 0 4 7 8 15 8 8 0 15 -4 15 -8z m140 -17 c0 -8
-7 -15 -15 -15 -8 0 -15 7 -15 15 0 8 7 15 15 15 8 0 15 -7 15 -15z m-250 -25
c0 -5 -4 -10 -10 -10 -5 0 -10 5 -10 10 0 6 5 10 10 10 6 0 10 -4 10 -10z
m-2492 -12 c19 -19 14 -38 -11 -38 -31 0 -38 9 -26 31 11 22 20 24 37 7z m156
-4 c9 -22 8 -24 -9 -24 -8 0 -15 9 -15 20 0 24 15 27 24 4z m2516 6 c0 -5 -4
-10 -10 -10 -5 0 -10 5 -10 10 0 6 5 10 10 10 6 0 10 -4 10 -10z m-1039 -27
c-12 -20 -14 -14 -5 12 4 9 9 14 11 11 3 -2 0 -13 -6 -23z m-1541 3 c0 -17
-27 -29 -35 -16 -4 6 -3 15 0 20 9 15 35 12 35 -4z m2660 -16 c0 -21 -24 -28
-35 -10 -8 14 3 30 21 30 8 0 14 -9 14 -20z m-60 -5 c0 -8 -7 -15 -15 -15 -16
0 -20 12 -8 23 11 12 23 8 23 -8z m-2762 -23 c6 -44 -40 -72 -53 -32 -4 11
-10 18 -15 15 -4 -3 -3 6 3 20 16 34 60 31 65 -3z m320 -1 c3 -8 -1 -12 -9 -9
-7 2 -15 10 -17 17 -3 8 1 12 9 9 7 -2 15 -10 17 -17z m-110 -8 c2 -8 -5 -13
-17 -13 -12 0 -21 6 -21 16 0 18 31 15 38 -3z m2382 -18 c0 -8 -6 -15 -14 -15
-8 0 -16 7 -20 15 -4 10 1 15 14 15 11 0 20 -7 20 -15z m-2493 -11 c6 -16 -12
-34 -34 -34 -7 0 -13 11 -13 25 0 18 5 25 20 25 11 0 23 -7 27 -16z m2571 -7
c2 -10 -3 -17 -12 -17 -18 0 -29 16 -21 31 9 14 29 6 33 -14z m172 8 c0 -8 -7
-15 -15 -15 -16 0 -20 12 -8 23 11 12 23 8 23 -8z m-2555 -4 c3 -5 1 -12 -5
-16 -5 -3 -10 1 -10 9 0 18 6 21 15 7z m-97 -28 c-2 -10 -10 -18 -18 -18 -8 0
-16 8 -18 18 -2 12 3 17 18 17 15 0 20 -5 18 -17z m2550 -6 c2 -12 -3 -17 -17
-17 -15 0 -21 6 -21 21 0 25 33 22 38 -4z m62 -7 c0 -5 -5 -10 -11 -10 -5 0
-7 5 -4 10 3 6 8 10 11 10 2 0 4 -4 4 -10z m-2826 -9 c10 -16 -5 -41 -25 -41
-11 0 -22 7 -26 16 -9 24 38 47 51 25z m286 -6 c0 -8 -4 -15 -9 -15 -13 0 -22
16 -14 24 11 11 23 6 23 -9z m2293 -30 c1 -5 -6 -11 -15 -13 -11 -2 -18 3 -18
13 0 17 30 18 33 0z m-2483 -5 c11 -7 12 -14 4 -27 -15 -24 -33 -28 -40 -9 -7
18 1 46 13 46 4 0 15 -5 23 -10z m90 -4 c0 -8 -4 -18 -10 -21 -5 -3 -10 -4
-10 -1 0 2 -3 11 -6 20 -4 11 -1 16 10 16 9 0 16 -6 16 -14z m2508 -14 c2 -15
-2 -22 -12 -22 -11 0 -16 9 -16 26 0 31 23 28 28 -4z m172 -8 c0 -8 -7 -14
-15 -14 -15 0 -21 21 -9 33 10 9 24 -2 24 -19z m-2872 -3 c21 -13 10 -46 -16
-49 -27 -4 -40 22 -22 43 14 17 20 18 38 6z m202 -15 c0 -22 -23 -36 -40 -25
-13 8 -12 12 4 24 25 19 36 19 36 1z m2420 -12 c0 -17 -22 -14 -28 4 -2 7 3
12 12 12 9 0 16 -7 16 -16z m-2315 -14 c3 -5 1 -10 -4 -10 -6 0 -11 5 -11 10
0 6 2 10 4 10 3 0 8 -4 11 -10z m-45 -25 c0 -8 -4 -15 -10 -15 -5 0 -10 7 -10
15 0 8 5 15 10 15 6 0 10 -7 10 -15z m1886 -42 c-14 -26 -25 -45 -26 -41 0 12
43 98 48 94 2 -2 -8 -26 -22 -53z m569 9 c-3 -4 -10 0 -15 8 -6 9 -5 17 3 22
13 8 24 -19 12 -30z m-2527 17 c-2 -6 -8 -10 -13 -10 -5 0 -11 4 -13 10 -2 6
4 11 13 11 9 0 15 -5 13 -11z m2400 -6 c2 -8 -5 -13 -17 -13 -21 0 -35 13 -24
24 10 10 36 3 41 -11z m236 8 c10 -16 -5 -41 -24 -41 -25 0 -35 18 -20 35 14
17 36 20 44 6z m-2714 -45 c0 -13 -28 -36 -44 -36 -9 0 -7 26 4 55 9 23 12 25
25 11 8 -8 15 -21 15 -30z m-85 20 c18 -13 18 -14 -4 -25 -51 -28 -78 -20 -66
19 7 23 42 27 70 6z m2635 -25 c0 -10 -26 -9 -36 2 -4 4 2 7 14 7 12 0 22 -4
22 -9z m-2470 -26 c0 -8 -6 -15 -14 -15 -17 0 -28 14 -19 24 12 12 33 6 33 -9z
m2568 -17 c-4 -30 -48 -39 -48 -10 0 24 8 32 32 32 14 0 19 -6 16 -22z m-800
-301 c-89 -169 -164 -305 -166 -302 -2 2 33 75 78 162 153 291 242 454 247
449 2 -1 -70 -141 -159 -309z m-1926 268 c13 -17 9 -62 -6 -74 -15 -13 -42 -6
-49 12 -2 7 0 27 5 45 9 32 33 41 50 17z m166 -13 c3 -17 -2 -22 -17 -22 -14
0 -21 6 -21 18 0 38 33 41 38 4z m-69 -3 c-9 -17 -13 -19 -20 -8 -14 22 -11
29 11 29 18 0 19 -3 9 -21z m2711 11 c0 -5 -7 -10 -15 -10 -8 0 -15 5 -15 10
0 6 7 10 15 10 8 0 15 -4 15 -10z m-2500 -25 c0 -8 -7 -15 -15 -15 -8 0 -15 7
-15 15 0 8 7 15 15 15 8 0 15 -7 15 -15z m2540 5 c0 -5 -7 -10 -15 -10 -8 0
-15 5 -15 10 0 6 7 10 15 10 8 0 15 -4 15 -10z m-201 -19 c16 -10 6 -31 -14
-31 -17 0 -28 17 -20 30 8 12 16 12 34 1z m161 -22 c0 -10 -7 -19 -15 -19 -15
0 -21 31 -9 43 11 10 24 -3 24 -24z m-2720 11 c0 -5 -4 -10 -10 -10 -5 0 -10
5 -10 10 0 6 5 10 10 10 6 0 10 -4 10 -10z m138 -2 c-6 -18 -28 -21 -28 -4 0
9 7 16 16 16 9 0 14 -5 12 -12z m92 -23 c0 -8 -4 -15 -10 -15 -5 0 -7 7 -4 15
4 8 8 15 10 15 2 0 4 -7 4 -15z m-138 -10 c0 -5 -5 -11 -11 -13 -6 -2 -11 4
-11 13 0 9 5 15 11 13 6 -2 11 -8 11 -13z m84 -34 c-10 -16 -36 -13 -36 3 0
17 21 27 34 16 4 -5 5 -13 2 -19z m-162 10 c8 -12 -21 -34 -34 -26 -17 11 -11
35 9 35 11 0 22 -4 25 -9z m-67 -17 c4 -11 -1 -22 -12 -30 -23 -17 -25 -17
-49 1 -16 12 -17 17 -6 30 17 20 59 19 67 -1z m2488 6 c-3 -5 -11 -10 -16 -10
-6 0 -7 5 -4 10 3 6 11 10 16 10 6 0 7 -4 4 -10z m-2315 -41 c0 -5 -9 -9 -20
-9 -19 0 -27 20 -13 33 7 8 33 -11 33 -24z m135 11 c-3 -5 -10 -10 -16 -10 -5
0 -9 5 -9 10 0 6 7 10 16 10 8 0 12 -4 9 -10z m2265 -5 c0 -8 -7 -15 -15 -15
-8 0 -15 7 -15 15 0 8 7 15 15 15 8 0 15 -7 15 -15z m158 -3 c15 -10 5 -42
-13 -42 -18 0 -28 17 -21 35 6 17 15 18 34 7z m-2478 -42 c0 -21 -24 -28 -35
-10 -8 14 3 30 21 30 8 0 14 -9 14 -20z m-150 -15 c0 -18 -5 -25 -20 -25 -20
0 -28 28 -13 43 15 16 33 6 33 -18z m234 0 c4 -10 -1 -15 -14 -15 -20 0 -26
11 -13 23 10 11 20 8 27 -8z m-306 -23 c4 -24 -22 -72 -38 -72 -6 0 -10 7 -10
15 0 8 -4 15 -10 15 -17 0 -24 51 -9 61 26 17 64 6 67 -19z m2562 13 c0 -9 -7
-18 -16 -22 -18 -7 -39 11 -30 26 11 17 46 13 46 -4z m-2387 -1 c11 -11 -5
-34 -23 -34 -18 0 -34 23 -23 34 8 8 38 8 46 0z m87 -44 c0 -11 -6 -20 -14
-20 -18 0 -29 16 -21 30 11 18 35 11 35 -10z m2368 -2 c-7 -19 -38 -22 -38 -4
0 10 9 16 21 16 12 0 19 -5 17 -12z m-2260 -25 c4 -24 -26 -40 -34 -18 -8 21
3 47 19 43 6 -3 13 -14 15 -25z m-240 -6 c3 -12 -3 -17 -22 -17 -25 0 -35 18
-19 34 12 12 38 2 41 -17z m-81 -17 c10 -20 9 -27 -4 -42 -17 -19 -73 -25 -73
-8 0 6 7 27 15 46 17 41 42 43 62 4z m155 -2 c-15 -15 -26 -4 -18 18 5 13 9
15 18 6 9 -9 9 -15 0 -24z m2318 17 c0 -16 -27 -32 -37 -22 -3 4 -3 13 0 22 8
20 37 20 37 0z m136 -34 c-9 -13 -46 -15 -46 -1 0 14 34 30 44 20 4 -4 5 -13
2 -19z m-1579 -87 c-23 -46 -43 -82 -45 -80 -2 2 14 39 36 82 22 44 37 86 35
94 -4 13 -3 13 5 1 7 -10 -1 -37 -31 -97z m-923 70 c22 -9 20 -31 -4 -44 -34
-18 -55 11 -28 38 14 14 12 14 32 6z m237 -10 c10 -13 10 -17 -2 -24 -17 -11
-45 13 -35 29 10 15 21 14 37 -5z m-71 -20 c0 -16 -26 -19 -35 -4 -3 6 -4 14
0 20 8 13 35 1 35 -16z m2103 11 c1 -5 -6 -11 -15 -13 -11 -2 -18 3 -18 13 0
17 30 18 33 0z m-2163 -16 c0 -15 -5 -20 -22 -17 -34 5 -37 38 -4 38 20 0 26
-5 26 -21z m2250 11 c0 -5 -7 -10 -15 -10 -8 0 -15 5 -15 10 0 6 7 10 15 10 8
0 15 -4 15 -10z m-2432 -53 c4 -33 -13 -57 -39 -57 -28 0 -33 19 -13 56 22 41
48 41 52 1z m2529 17 c6 -16 -15 -37 -29 -28 -4 3 -8 14 -8 25 0 23 28 26 37
3z m-292 -14 c3 -5 -3 -10 -15 -10 -12 0 -18 5 -15 10 3 6 10 10 15 10 5 0 12
-4 15 -10z m55 -15 c7 -9 10 -18 7 -21 -10 -11 -37 5 -37 21 0 19 14 19 30 0z
m86 6 c12 10 13 9 8 -4 -10 -26 -34 -29 -33 -4 0 12 3 16 6 9 4 -10 8 -10 19
-1z m-2251 -26 c0 -13 -8 -21 -22 -23 -17 -3 -23 2 -23 16 0 10 3 22 7 26 13
13 38 1 38 -19z m70 0 c0 -11 -8 -21 -17 -23 -14 -3 -18 3 -18 23 0 20 4 26
18 23 9 -2 17 -12 17 -23z m123 -32 c-2 -10 -10 -18 -18 -18 -8 0 -16 8 -18
18 -2 12 3 17 18 17 15 0 20 -5 18 -17z m72 -4 c0 -5 -4 -9 -10 -9 -5 0 -10 7
-10 16 0 8 5 12 10 9 6 -3 10 -10 10 -16z m2070 -28 c0 -11 -5 -23 -11 -27
-15 -9 -33 12 -26 30 9 23 37 20 37 -3z m-102 -3 c-7 -19 -38 -22 -38 -4 0 10
9 16 21 16 12 0 19 -5 17 -12z m-2328 -9 c0 -7 11 -8 30 -4 25 5 30 3 30 -12
0 -19 -26 -62 -44 -75 -5 -4 -20 7 -33 25 -32 43 -30 77 4 77 7 0 13 -5 13
-11z m248 -11 c-4 -27 -33 -36 -42 -13 -8 22 1 35 25 35 15 0 20 -6 17 -22z
m1952 -8 c0 -13 -7 -20 -20 -20 -19 0 -27 20 -13 33 13 14 33 6 33 -13z
m-1830 -35 c0 -18 -5 -25 -19 -25 -11 0 -23 5 -26 10 -11 18 3 40 25 40 15 0
20 -7 20 -25z m873 11 c9 -22 -19 -42 -37 -26 -19 15 -10 40 14 40 10 0 20 -6
23 -14z m-780 -11 c7 -16 -8 -29 -23 -20 -15 9 -12 35 4 35 8 0 16 -7 19 -15z
m1905 3 c-6 -18 -28 -21 -28 -4 0 9 7 16 16 16 9 0 14 -5 12 -12z m-2165 -38
c-6 -24 -41 -26 -50 -4 -8 22 25 48 43 33 6 -5 10 -19 7 -29z m83 19 c7 -12
-15 -31 -28 -23 -4 3 -8 12 -8 20 0 17 26 19 36 3z m1699 -10 c0 -7 -8 -15
-17 -17 -18 -3 -25 18 -11 32 10 10 28 1 28 -15z m255 -4 c0 -16 -27 -32 -37
-22 -3 4 -3 13 0 22 8 20 37 20 37 0z m-89 -20 c-1 -15 -24 -12 -29 3 -3 9 2
13 12 10 10 -1 17 -7 17 -13z m-2056 -5 c3 -5 18 -10 33 -10 23 0 24 -2 12
-15 -8 -8 -34 -17 -57 -21 -45 -7 -62 7 -49 41 6 17 51 20 61 5z m249 -31 c-8
-14 -34 -11 -34 4 0 8 3 17 7 20 9 9 34 -13 27 -24z m1746 21 c0 -5 -5 -10
-11 -10 -5 0 -7 5 -4 10 3 6 8 10 11 10 2 0 4 -4 4 -10z m-1334 -27 c-10 -10
-19 5 -10 18 6 11 8 11 12 0 2 -7 1 -15 -2 -18z m1548 21 c22 -9 10 -24 -19
-24 -18 0 -23 4 -19 15 7 16 14 18 38 9z m-1859 -34 c-6 -9 -9 -9 -16 1 -10
17 0 34 13 21 6 -6 7 -16 3 -22z m65 5 c0 -8 -7 -15 -15 -15 -8 0 -15 7 -15
15 0 8 7 15 15 15 8 0 15 -7 15 -15z m50 11 c0 -3 -4 -8 -10 -11 -5 -3 -10 -1
-10 4 0 6 5 11 10 11 6 0 10 -2 10 -4z m87 -18 c-3 -8 -6 -5 -6 6 -1 11 2 17
5 13 3 -3 4 -12 1 -19z m-357 0 c0 -7 -4 -19 -9 -26 -6 -10 -10 -10 -20 2 -7
8 -10 20 -6 26 9 14 35 13 35 -2z m105 -18 c0 -8 -10 -16 -22 -18 -22 -3 -32
16 -16 32 12 11 38 2 38 -14z m1643 8 c-6 -18 -28 -21 -28 -4 0 9 7 16 16 16
9 0 14 -5 12 -12z m-1837 -10 c5 -46 7 -56 17 -75 9 -16 8 -23 -3 -33 -18 -15
-35 -5 -35 21 0 10 -4 19 -10 19 -5 0 -15 10 -21 22 -10 18 -8 24 11 40 26 21
39 23 41 6z m2039 -12 c0 -2 3 -11 6 -20 4 -11 0 -16 -14 -16 -23 0 -36 15
-27 30 6 10 35 14 35 6z m-1574 -33 c-3 -3 -13 -2 -23 2 -17 7 -17 8 2 15 19
7 34 -5 21 -17z m-106 2 c0 -8 -9 -15 -20 -15 -11 0 -20 7 -20 15 0 8 9 15 20
15 11 0 20 -7 20 -15z m-230 -15 c0 -20 -13 -40 -26 -40 -20 0 -29 27 -14 45
11 14 40 10 40 -5z m106 -9 c-10 -16 -36 -13 -36 3 0 17 21 27 34 16 4 -5 5
-13 2 -19z m1564 19 c0 -5 -7 -10 -15 -10 -8 0 -15 5 -15 10 0 6 7 10 15 10 8
0 15 -4 15 -10z m154 -31 c-8 -14 -30 -10 -45 7 -10 13 -10 17 1 24 16 10 53
-17 44 -31z m-294 10 c0 -6 -4 -7 -10 -4 -5 3 -10 11 -10 16 0 6 5 7 10 4 6
-3 10 -11 10 -16z m-1132 -12 c2 -10 -3 -17 -12 -17 -10 0 -16 9 -16 21 0 24
23 21 28 -4z m-238 -1 c0 -21 -20 -30 -33 -17 -9 9 -8 14 3 21 21 14 30 12 30
-4z m136 -25 c-10 -16 -36 -13 -43 5 -8 22 18 37 36 20 7 -8 10 -19 7 -25z
m274 18 c0 -5 -7 -9 -15 -9 -15 0 -20 12 -9 23 8 8 24 -1 24 -14z m1030 1 c0
-5 -4 -10 -10 -10 -5 0 -10 5 -10 10 0 6 5 10 10 10 6 0 10 -4 10 -10z m-130
-15 c0 -8 -4 -15 -10 -15 -5 0 -10 7 -10 15 0 8 5 15 10 15 6 0 10 -7 10 -15z
m283 1 c3 -8 -1 -20 -9 -27 -12 -10 -18 -9 -31 3 -8 9 -12 21 -9 27 10 16 43
14 49 -3z m112 4 c3 -5 -1 -10 -9 -10 -9 0 -16 5 -16 10 0 6 4 10 9 10 6 0 13
-4 16 -10z m-575 -10 c0 -5 -4 -10 -10 -10 -5 0 -10 5 -10 10 0 6 5 10 10 10
6 0 10 -4 10 -10z m-930 -20 c0 -21 -24 -28 -35 -10 -8 14 3 30 21 30 8 0 14
-9 14 -20z m-253 -1 c14 -14 6 -39 -12 -39 -18 0 -28 17 -21 35 6 18 18 19 33
4z m1117 -4 c-4 -8 -8 -15 -10 -15 -2 0 -4 7 -4 15 0 8 4 15 10 15 5 0 7 -7 4
-15z m-1214 -28 c-1 -33 -42 -45 -48 -14 -7 33 5 49 28 37 11 -6 20 -16 20
-23z m210 20 c0 -19 -10 -27 -26 -20 -21 8 -17 33 6 33 11 0 20 -6 20 -13z
m216 -9 c-10 -6 -20 -7 -24 -3 -9 8 20 25 31 18 5 -3 2 -10 -7 -15z m1234 13
c2 -1 -1 -6 -7 -12 -13 -13 -47 -4 -39 10 4 5 14 8 24 6 9 -2 19 -4 22 -4z
m-1130 -16 c0 -8 -7 -15 -15 -15 -8 0 -15 7 -15 15 0 8 7 15 15 15 8 0 15 -7
15 -15z m265 6 c3 -5 1 -12 -5 -16 -5 -3 -10 1 -10 9 0 18 6 21 15 7z m1005
-6 c0 -8 -9 -15 -20 -15 -11 0 -20 7 -20 15 0 8 9 15 20 15 11 0 20 -7 20 -15z
m-1132 -22 c5 -17 -26 -29 -40 -15 -6 6 -7 15 -3 22 9 14 37 9 43 -7z m412 7
c0 -5 -4 -10 -9 -10 -6 0 -13 5 -16 10 -3 6 1 10 9 10 9 0 16 -4 16 -10z
m-332 -23 c2 -10 -3 -17 -12 -17 -10 0 -16 9 -16 21 0 24 23 21 28 -4z m680
12 c-2 -6 -8 -10 -13 -10 -5 0 -11 4 -13 10 -2 6 4 11 13 11 9 0 15 -5 13 -11z
m299 -5 c8 -21 -13 -42 -28 -27 -13 13 -5 43 11 43 6 0 13 -7 17 -16z m-1429
-19 c-3 -3 -9 2 -12 12 -6 14 -5 15 5 6 7 -7 10 -15 7 -18z m50 3 c2 -9 -6
-18 -18 -21 -14 -4 -20 0 -20 12 0 33 32 41 38 9z m612 1 c0 -6 -4 -7 -10 -4
-5 3 -10 11 -10 16 0 6 5 7 10 4 6 -3 10 -11 10 -16z m300 11 c0 -5 -2 -10 -4
-10 -3 0 -8 5 -11 10 -3 6 -1 10 4 10 6 0 11 -4 11 -10z m308 -2 c-6 -18 -28
-21 -28 -4 0 9 7 16 16 16 9 0 14 -5 12 -12z m-1083 -8 c4 -6 1 -17 -5 -25
-16 -19 -52 -2 -44 20 7 17 40 20 49 5z m994 -19 c-15 -5 -22 6 -14 19 6 9 10
9 16 -1 5 -8 4 -15 -2 -18z m-1428 -3 c-9 -25 -29 -33 -50 -19 -23 15 -5 41
28 41 27 0 29 -2 22 -22z m152 8 c7 -18 -1 -26 -29 -26 -24 0 -40 26 -21 34
23 9 45 6 50 -8z m624 -2 c6 -16 -11 -34 -33 -34 -18 0 -27 32 -12 42 20 12
38 9 45 -8z m528 -4 c0 -8 -10 -16 -22 -18 -22 -3 -32 16 -16 32 12 11 38 2
38 -14z m-89 -29 c-10 -16 -36 -13 -36 3 0 17 21 27 34 16 4 -5 5 -13 2 -19z
m-836 -11 c0 -20 -5 -25 -20 -22 -19 5 -30 22 -23 38 6 15 43 1 43 -16z m160
-1 c0 -12 -7 -19 -20 -19 -19 0 -28 28 -14 43 11 11 34 -5 34 -24z m313 16 c4
-8 3 -16 -1 -19 -13 -8 -35 11 -28 23 10 15 23 14 29 -4z m737 -14 c0 -24 -8
-30 -31 -24 -21 6 -25 23 -8 40 15 15 39 5 39 -16z m-1520 10 c0 -5 -7 -17
-16 -26 -12 -12 -19 -13 -30 -4 -24 20 -16 39 16 39 17 0 30 -4 30 -9z m994
-6 c3 -8 1 -15 -4 -15 -6 0 -10 5 -10 11 0 5 -4 7 -10 4 -5 -3 -10 -1 -10 4 0
17 27 13 34 -4z m-614 -35 c0 -18 -36 -38 -47 -26 -3 3 -7 16 -8 29 -3 20 1
23 26 19 20 -3 29 -10 29 -22z m200 10 c0 -13 -7 -20 -20 -20 -19 0 -27 20
-13 33 13 14 33 6 33 -13z m-546 -6 c9 -25 7 -34 -8 -34 -19 0 -28 14 -20 34
8 20 20 20 28 0z m1194 -7 c2 -12 -3 -17 -17 -17 -12 0 -21 6 -21 13 0 31 32
34 38 4z m-1050 -19 c-4 -30 -48 -39 -48 -10 0 10 3 22 7 25 3 4 15 7 25 7 14
0 19 -6 16 -22z m492 3 c0 -20 -26 -36 -35 -21 -8 13 6 40 21 40 8 0 14 -9 14
-19z m-550 -10 c0 -22 -21 -33 -40 -21 -18 11 -4 40 20 40 13 0 20 -7 20 -19z
m688 7 c-6 -18 -28 -21 -28 -4 0 9 7 16 16 16 9 0 14 -5 12 -12z m542 -8 c0
-11 -4 -20 -9 -20 -13 0 -32 26 -24 33 13 14 33 6 33 -13z m98 -8 c3 -17 -2
-22 -17 -22 -14 0 -21 6 -21 18 0 38 33 41 38 4z m-312 7 c10 -17 -13 -36 -27
-22 -12 12 -4 33 11 33 5 0 12 -5 16 -11z m-716 -22 c0 -19 -10 -27 -26 -20
-21 8 -17 33 6 33 11 0 20 -6 20 -13z m474 4 c9 -15 -23 -36 -36 -23 -5 5 -7
15 -4 21 9 13 33 14 40 2z m116 -11 c0 -13 -7 -20 -20 -20 -13 0 -20 7 -20 20
0 13 7 20 20 20 13 0 20 -7 20 -20z m-500 -5 c0 -9 -6 -12 -15 -9 -8 4 -15 10
-15 15 0 5 7 9 15 9 8 0 15 -7 15 -15z m71 -20 c5 4 9 0 9 -8 0 -10 -7 -13
-20 -10 -23 6 -22 5 -13 30 7 17 8 17 11 0 2 -9 8 -15 13 -12z m179 11 c0 -2
3 -11 6 -20 5 -12 0 -16 -19 -16 -28 0 -42 14 -32 30 6 10 45 15 45 6z m90
-17 c0 -24 -23 -21 -28 4 -2 10 3 17 12 17 10 0 16 -9 16 -21z m478 0 c4 -19
-27 -34 -41 -20 -14 14 0 43 20 39 10 -2 19 -10 21 -19z m-1098 2 c0 -18 -18
-21 -30 -6 -10 13 -9 15 9 15 11 0 21 -4 21 -9z m460 -7 c0 -8 -9 -14 -20 -14
-11 0 -20 6 -20 13 0 7 9 13 20 14 11 1 20 -4 20 -13z m-357 -1 c8 -14 -12
-53 -26 -53 -20 0 -40 27 -33 45 5 15 51 21 59 8z m751 -8 c-4 -8 -8 -15 -10
-15 -2 0 -4 7 -4 15 0 8 4 15 10 15 5 0 7 -7 4 -15z m-606 -3 c15 -10 5 -42
-12 -42 -19 0 -24 9 -19 31 6 21 11 23 31 11z m772 -23 c0 -5 -9 -9 -20 -9
-22 0 -27 16 -7 23 15 5 27 -1 27 -14z m-304 0 c9 -15 -11 -33 -30 -26 -9 4
-13 13 -10 22 7 17 30 20 40 4z m-388 -11 c-6 -18 -28 -21 -28 -4 0 9 7 16 16
16 9 0 14 -5 12 -12z m85 -8 c4 -16 0 -20 -19 -20 -17 0 -24 6 -24 20 0 13 7
20 19 20 10 0 21 -9 24 -20z m197 -24 c-13 -13 -35 7 -25 24 5 8 11 8 21 -1
10 -8 12 -15 4 -23z m310 14 c13 -9 13 -11 0 -20 -28 -18 -60 -4 -45 20 8 13
26 13 45 0z m-703 -16 c8 -20 -8 -36 -26 -25 -15 10 -8 41 9 41 6 0 13 -7 17
-16z m617 0 c9 -23 8 -24 -19 -24 -37 0 -31 35 6 39 4 1 10 -6 13 -15z m-86
-26 c-2 -12 -9 -23 -15 -26 -19 -6 -29 28 -12 39 23 14 31 10 27 -13z m-428
-9 c0 -5 -4 -8 -9 -4 -6 3 -14 -3 -20 -12 -9 -15 -10 -15 -11 -2 0 9 3 19 7
22 10 11 33 8 33 -4z m90 -3 c0 -2 -7 -7 -16 -10 -8 -3 -12 -2 -9 4 6 10 25
14 25 6z m120 0 c0 -18 -15 -36 -31 -36 -18 0 -26 20 -12 33 7 8 43 10 43 3z
m120 -15 c0 -14 -5 -18 -20 -14 -21 5 -25 15 -13 26 13 14 33 6 33 -12z m-517
-1071 c16 -19 16 -20 -3 -20 -13 0 -20 7 -20 20 0 11 1 20 3 20 1 0 10 -9 20
-20z m107 -96 c0 -2 -7 -4 -15 -4 -8 0 -15 4 -15 10 0 5 7 7 15 4 8 -4 15 -8
15 -10z m30 -14 c0 -5 -4 -10 -10 -10 -5 0 -10 5 -10 10 0 6 5 10 10 10 6 0
10 -4 10 -10z"/>
<path d="M1970 2428 c0 -8 7 -21 15 -28 19 -16 19 -1 0 24 -12 16 -15 17 -15
4z"/>
<path d="M2690 2065 c0 -5 5 -17 10 -25 5 -8 10 -10 10 -5 0 6 -5 17 -10 25
-5 8 -10 11 -10 5z"/>
<path d="M2954 3368 c-4 -7 -4 -10 1 -6 4 4 14 3 20 -2 9 -7 16 -6 25 5 11 13
9 15 -13 15 -14 0 -29 -6 -33 -12z"/>
<path d="M2 830 c0 -14 2 -19 5 -12 2 6 2 18 0 25 -3 6 -5 1 -5 -13z"/>
</g>
</svg>
